<?xml version="1.0" standalone="no"?>
<!DOCTYPE svg PUBLIC "-//W3C//DTD SVG 20010904//EN"
 "http://www.w3.org/TR/2001/REC-SVG-20010904/DTD/svg10.dtd">
<svg version="1.0" xmlns="http://www.w3.org/2000/svg"
 width="700.000000pt" height="700.000000pt" viewBox="0 0 700.000000 700.000000"
 preserveAspectRatio="xMidYMid meet">
<metadata>
Created by potrace 1.14, written by Peter Selinger 2001-2017
</metadata>
<g transform="translate(0.000000,700.000000) scale(0.100000,-0.100000)"
fill="#000000" stroke="none">
<path d="M2400 6994 c-350 -40 -575 -101 -812 -219 -495 -248 -792 -696 -827
-1252 -25 -403 78 -704 314 -921 37 -34 87 -74 111 -89 24 -16 44 -32 44 -36
0 -5 -9 -22 -21 -38 -64 -90 -135 -300 -168 -500 -36 -211 -42 -392 -31 -934
16 -781 47 -1411 115 -2301 30 -389 47 -458 144 -582 79 -100 218 -125 341
-62 40 20 101 83 123 127 34 65 51 173 137 868 151 1227 183 1418 276 1686 49
141 109 255 166 312 46 46 48 47 109 47 115 0 176 -48 244 -191 132 -283 183
-797 190 -1924 4 -605 8 -649 66 -772 54 -112 168 -185 294 -186 116 -1 207
70 263 206 31 74 74 249 91 372 30 210 178 933 252 1235 109 443 232 738 303
728 53 -8 133 -202 180 -441 50 -250 101 -693 151 -1307 28 -339 41 -433 75
-522 64 -172 202 -267 390 -271 160 -2 266 92 300 268 6 33 15 166 20 295 5
129 14 287 20 350 28 313 54 921 66 1547 l7 341 76 27 c399 140 677 533 756
1067 40 278 24 782 -41 1278 -23 176 -48 226 -127 245 -73 19 -84 11 -381
-291 l-281 -284 -120 26 c-102 23 -144 26 -285 27 -145 0 -176 -3 -260 -25
-52 -14 -95 -25 -96 -24 -12 32 -369 563 -395 589 -35 34 -43 37 -94 37 -49 0
-59 -4 -95 -36 -73 -66 -187 -255 -211 -348 -6 -25 -14 -46 -18 -46 -3 0 -19
24 -36 52 -50 85 -169 252 -269 376 -185 232 -379 401 -498 437 -146 43 -375
-6 -578 -125 -235 -137 -578 -468 -667 -643 l-26 -52 -48 53 c-82 89 -111 207
-90 366 23 173 87 306 208 436 219 234 562 355 915 322 210 -20 355 -73 479
-176 60 -51 96 -91 219 -246 122 -155 262 -212 403 -164 64 22 140 92 173 162
23 47 29 74 32 157 4 88 1 110 -22 179 -95 281 -458 594 -839 721 -161 54
-247 66 -472 70 -115 2 -226 1 -245 -1z m478 -299 c242 -46 472 -172 649 -352
127 -130 181 -231 170 -317 -11 -84 -25 -76 -172 99 -202 241 -409 369 -697
432 -120 26 -427 25 -553 -1 -506 -106 -878 -439 -991 -886 -27 -106 -27 -349
0 -435 43 -139 130 -266 233 -344 180 -134 297 -136 354 -4 25 60 107 177 193
281 212 253 498 450 712 492 55 11 65 10 100 -8 173 -88 434 -394 699 -816
l88 -140 -18 -140 c-70 -568 63 -1035 397 -1391 130 -139 342 -274 516 -329
95 -30 141 -32 183 -11 93 49 91 208 -3 249 -18 8 -58 22 -88 31 -126 38 -267
126 -378 234 -198 194 -314 442 -353 755 -24 197 3 530 62 746 27 102 79 237
95 251 10 8 46 -40 174 -234 176 -269 190 -283 270 -275 25 3 104 17 175 32
118 26 143 28 270 23 97 -4 185 -15 284 -35 113 -23 152 -27 180 -20 28 7 78
53 227 206 l191 196 7 -44 c28 -170 38 -298 43 -546 6 -286 -1 -395 -33 -554
-81 -393 -317 -666 -649 -750 -44 -11 -91 -28 -105 -38 -54 -40 -57 -54 -64
-419 -13 -658 -33 -1133 -66 -1613 -11 -157 -24 -373 -29 -480 -5 -107 -12
-203 -16 -213 -6 -14 -14 -17 -39 -12 -103 20 -120 72 -151 465 -76 943 -139
1403 -231 1679 -43 130 -82 203 -145 275 -101 113 -257 154 -371 98 -257 -126
-393 -521 -653 -1890 -96 -506 -125 -627 -150 -627 -6 0 -19 25 -29 55 -18 51
-20 99 -27 690 -11 976 -39 1371 -123 1702 -40 160 -82 264 -145 361 -143 218
-387 316 -592 238 -172 -66 -301 -233 -399 -516 -112 -326 -162 -630 -305
-1860 -59 -510 -73 -613 -90 -644 l-13 -25 -15 35 c-23 56 -25 74 -52 429 -73
993 -102 1599 -111 2345 -7 559 1 685 56 899 46 177 84 259 196 415 53 75 21
153 -89 213 -195 106 -331 283 -388 503 -42 163 -36 406 15 607 97 382 378
676 796 831 100 37 258 78 375 97 201 32 471 34 623 5z"/>
<path d="M5633 4147 l-91 -41 -43 -146 c-23 -80 -45 -148 -49 -153 -3 -4 -17
44 -29 107 -13 63 -26 118 -30 124 -5 9 -254 -97 -274 -117 -5 -5 24 -30 64
-57 172 -114 332 -135 436 -58 65 49 122 226 111 346 l-3 35 -92 -40z"/>
<path d="M4362 4053 c3 -74 10 -111 28 -151 27 -63 87 -118 144 -133 59 -16
173 -5 245 24 75 30 172 88 168 100 -4 14 -210 99 -217 90 -4 -4 -24 -48 -45
-96 l-39 -89 -46 136 c-25 74 -48 137 -51 139 -11 11 -164 77 -177 77 -12 0
-14 -16 -10 -97z"/>
</g>
</svg>
