<?xml version="1.0" standalone="no"?>
<!DOCTYPE svg PUBLIC "-//W3C//DTD SVG 20010904//EN"
 "http://www.w3.org/TR/2001/REC-SVG-20010904/DTD/svg10.dtd">
<svg version="1.0" xmlns="http://www.w3.org/2000/svg"
 width="512.000000pt" height="512.000000pt" viewBox="0 0 512.000000 512.000000"
 preserveAspectRatio="xMidYMid meet">
<metadata>
Created by potrace 1.14, written by Peter Selinger 2001-2017
</metadata>
<g transform="translate(0.000000,512.000000) scale(0.100000,-0.100000)"
fill="#000000" stroke="none">
<path d="M2041 4789 c-468 -49 -932 -288 -1237 -637 -343 -392 -518 -912 -476
-1415 32 -382 154 -707 379 -1009 490 -660 1382 -934 2148 -660 l130 46 780 0
c765 1 781 1 807 -19 91 -68 90 -201 -1 -271 -25 -18 -53 -19 -801 -24 -753
-5 -776 -6 -808 -25 -64 -39 -77 -74 -77 -215 0 -141 13 -176 77 -215 32 -20
51 -20 803 -20 891 0 836 -5 936 94 93 94 94 98 94 541 0 443 -1 447 -94 541
-95 95 -85 93 -595 97 l-439 3 30 32 c138 147 284 406 362 642 157 471 125
985 -88 1430 -350 732 -1125 1168 -1930 1084z m549 -349 c625 -148 1090 -624
1216 -1242 21 -98 13 -131 -32 -148 -37 -14 -856 -13 -887 1 -16 7 -40 43 -72
107 -67 135 -162 230 -297 297 -64 32 -100 56 -107 72 -7 16 -11 163 -11 454
l0 430 25 24 c29 30 54 31 165 5z m-997 -311 c26 -12 47 -47 47 -80 0 -31 -44
-69 -80 -69 -36 0 -80 38 -80 69 0 31 20 68 44 79 28 14 40 14 69 1z m182
-294 c61 -60 -6 -158 -85 -125 -17 7 -35 21 -40 31 -28 52 12 119 70 119 19 0
40 -9 55 -25z m-660 -220 c16 -15 25 -36 25 -55 0 -36 -38 -80 -69 -80 -61 0
-103 56 -82 109 22 53 87 66 126 26z m260 -141 c8 -4 23 -20 31 -36 42 -81
-58 -157 -121 -93 -63 62 6 161 90 129z m935 -456 c48 -25 90 -89 90 -138 0
-49 -42 -113 -90 -137 -24 -13 -56 -23 -70 -23 -49 0 -113 42 -137 90 -13 24
-23 56 -23 70 0 14 10 46 23 70 24 48 88 90 137 90 14 0 46 -10 70 -22z m-710
-308 c10 -5 39 -53 65 -106 66 -137 162 -233 299 -299 53 -26 101 -55 106 -65
13 -25 13 -860 0 -894 -17 -45 -48 -51 -147 -32 -601 117 -1091 592 -1239
1201 -30 126 -30 150 1 180 l24 25 436 0 c265 0 443 -4 455 -10z m1595 -295
c52 -51 17 -135 -57 -135 -39 0 -78 40 -78 80 0 41 39 80 80 80 19 0 40 -9 55
-25z m280 -160 c73 -72 -28 -178 -109 -114 -20 16 -26 29 -26 59 0 72 84 106
135 55z m-660 -220 c31 -30 32 -73 4 -109 -43 -55 -139 -18 -139 54 0 41 39
80 80 80 19 0 40 -9 55 -25z m164 -281 c28 -36 27 -79 -4 -109 -72 -73 -178
28 -114 109 16 20 29 26 59 26 30 0 43 -6 59 -26z m838 -336 c51 -48 15 -138
-56 -138 -47 0 -81 32 -81 79 0 72 84 109 137 59z m480 0 c51 -48 15 -138 -56
-138 -47 0 -81 32 -81 79 0 72 84 109 137 59z m-960 -800 c51 -48 15 -138 -56
-138 -47 0 -81 32 -81 79 0 72 84 109 137 59z m480 0 c51 -48 15 -138 -56
-138 -47 0 -81 32 -81 79 0 72 84 109 137 59z m480 0 c51 -48 15 -138 -56
-138 -47 0 -81 32 -81 79 0 72 84 109 137 59z"/>
</g>
</svg>
