<?xml version="1.0" standalone="no"?>
<!DOCTYPE svg PUBLIC "-//W3C//DTD SVG 20010904//EN"
 "http://www.w3.org/TR/2001/REC-SVG-20010904/DTD/svg10.dtd">
<svg version="1.0" xmlns="http://www.w3.org/2000/svg"
 width="700.000000pt" height="700.000000pt" viewBox="0 0 700.000000 700.000000"
 preserveAspectRatio="xMidYMid meet">
<metadata>
Created by potrace 1.14, written by Peter Selinger 2001-2017
</metadata>
<g transform="translate(0.000000,700.000000) scale(0.100000,-0.100000)"
fill="#000000" stroke="none">
<path d="M3380 6822 c-25 -1 -97 -9 -160 -18 -783 -105 -1444 -645 -1704
-1393 -36 -103 -77 -269 -91 -366 -4 -27 -10 -59 -12 -70 -2 -11 -6 -99 -8
-195 -3 -182 2 -260 31 -425 44 -258 199 -640 376 -925 15 -25 36 -62 48 -82
11 -20 75 -124 142 -230 171 -272 256 -417 315 -538 47 -96 95 -224 107 -282
3 -13 8 -34 12 -48 7 -23 9 -155 17 -1010 2 -276 4 -299 25 -357 59 -165 187
-286 358 -338 27 -8 61 -15 76 -15 23 0 35 -11 68 -64 59 -93 154 -178 253
-225 102 -49 158 -63 267 -63 214 -1 406 107 524 295 28 43 43 57 61 58 14 1
28 2 33 4 4 1 25 5 47 10 113 23 265 146 324 263 59 116 60 128 64 807 l3 620
28 93 c56 192 150 374 378 732 172 270 267 433 357 610 116 229 203 466 237
650 3 14 9 43 14 65 27 121 33 471 11 625 -51 359 -199 711 -417 995 -335 436
-846 731 -1384 800 -133 17 -291 24 -400 17z"/>
<path d="M1533 6735 c-32 -13 -55 -57 -49 -90 3 -11 5 -23 5 -26 1 -6 152
-161 189 -193 27 -23 82 -30 104 -13 27 21 46 64 40 92 -6 32 -205 231 -237
237 -13 3 -36 -1 -52 -7z"/>
<path d="M5404 6740 c-32 -12 -221 -208 -226 -235 -13 -66 52 -120 116 -95 33
12 215 197 222 225 5 19 -18 95 -28 95 -2 0 -17 4 -33 9 -17 4 -39 5 -51 1z"/>
<path d="M944 5850 c-54 -22 -70 -92 -31 -133 19 -21 190 -99 265 -122 45 -13
96 24 103 75 1 8 -1 27 -5 42 -9 29 -38 46 -186 106 -92 38 -119 44 -146 32z"/>
<path d="M5970 5843 c-19 -8 -77 -32 -129 -54 -52 -21 -96 -40 -98 -43 -3 -2
-11 -22 -18 -43 -11 -33 -11 -42 3 -65 18 -31 57 -50 88 -44 53 11 251 100
272 122 12 14 22 38 22 54 0 38 -37 80 -75 84 -17 2 -46 -3 -65 -11z"/>
<path d="M775 4812 c-47 -4 -74 -22 -85 -58 -14 -41 -5 -74 26 -98 22 -15 44
-18 147 -18 177 0 176 0 202 27 55 54 16 145 -62 145 -21 1 -74 2 -118 3 -44
1 -93 1 -110 -1z"/>
<path d="M5966 4805 c-65 -21 -78 -114 -21 -151 33 -22 291 -25 330 -4 53 28
54 121 1 149 -28 15 -268 20 -310 6z"/>
<path d="M1160 3850 c-14 -4 -50 -19 -80 -32 -30 -14 -77 -33 -103 -43 -88
-33 -114 -102 -57 -155 40 -37 58 -35 212 29 107 44 128 57 141 83 21 43 4 92
-39 113 -35 17 -38 17 -74 5z"/>
<path d="M5765 3848 c-38 -22 -56 -69 -42 -110 9 -29 38 -45 192 -109 100 -41
139 -43 171 -5 30 34 31 78 2 110 -23 24 -228 115 -278 122 -14 2 -34 -2 -45
-8z"/>
<path d="M1699 3040 c-24 -14 -198 -190 -210 -211 -11 -22 -6 -58 12 -88 15
-23 53 -39 85 -33 29 4 225 198 234 230 19 70 -61 137 -121 102z"/>
<path d="M5219 3035 c-29 -16 -47 -56 -41 -92 4 -26 208 -232 231 -234 71 -5
121 44 106 104 -7 25 -140 168 -202 217 -30 23 -58 25 -94 5z"/>
</g>
</svg>
